<?xml version="1.0" standalone="no"?>
<!DOCTYPE svg PUBLIC "-//W3C//DTD SVG 20010904//EN"
 "http://www.w3.org/TR/2001/REC-SVG-20010904/DTD/svg10.dtd">
<svg version="1.0" xmlns="http://www.w3.org/2000/svg"
 width="300.000000pt" height="55.000000pt" viewBox="0 0 300.000000 55.000000"
 preserveAspectRatio="xMidYMid meet">
<metadata>
Created by potrace 1.10, written by Peter Selinger 2001-2011
</metadata>
<g transform="translate(0.000000,55.000000) scale(0.050000,-0.050000)"
fill="#000000" stroke="none">
<path d="M4605 1059 c-63 -25 -73 -65 -36 -138 18 -34 38 -121 45 -193 l12
-130 -72 34 c-200 95 -439 -158 -408 -431 22 -194 229 -246 369 -93 76 83 85
87 85 31 0 -109 114 -162 189 -88 38 39 41 109 4 109 -78 0 -99 71 -76 256 34
264 30 565 -8 620 -34 49 -39 50 -104 23z m-38 -609 c104 -78 -115 -329 -233
-267 -88 46 -104 173 -31 251 51 54 202 64 264 16z"/>
<path d="M898 982 c-47 -38 -47 -38 -13 -135 42 -116 44 -239 5 -307 -36 -63
-38 -120 -3 -120 27 0 25 -27 -17 -305 -14 -95 -14 -95 43 -95 107 1 117 21
117 234 l0 196 237 10 237 10 -13 -90 c-34 -229 -36 -300 -11 -330 62 -74 240
8 184 86 -65 92 -69 130 -36 404 49 409 42 480 -50 480 -89 0 -119 -62 -87
-180 17 -60 28 -135 25 -166 l-6 -56 -237 -4 -236 -4 13 150 c21 236 -35 317
-152 222z"/>
<path d="M5003 968 c-82 -58 -53 -158 47 -158 106 0 149 90 72 152 -56 46 -61
46 -119 6z"/>
<path d="M2110 641 c-195 -47 -344 -262 -315 -454 26 -181 252 -225 383 -76
72 82 82 84 82 20 0 -108 133 -151 191 -62 34 52 25 91 -21 91 -44 0 -70 67
-70 179 0 76 7 101 30 101 39 0 59 86 31 137 -35 67 -179 96 -311 64z m107
-154 c90 -24 10 -240 -111 -298 -126 -59 -215 33 -177 184 23 91 164 147 288
114z"/>
<path d="M2607 640 c-72 -29 -79 -95 -16 -153 55 -51 64 -265 18 -422 -12 -38
-6 -45 34 -45 75 1 100 28 119 129 37 201 139 337 243 327 73 -7 77 -31 45
-250 -19 -131 20 -206 107 -206 110 0 154 95 70 150 -55 36 -57 74 -14 304 9
54 1 75 -52 128 -111 111 -262 45 -373 -162 l-48 -90 12 121 c17 164 -29 216
-145 169z"/>
<path d="M3673 639 c-359 -107 -427 -653 -76 -613 72 8 105 25 156 80 l64 70
13 -53 c19 -76 48 -103 108 -103 101 0 144 112 58 150 -69 31 -91 270 -26 270
35 0 55 92 30 140 -35 66 -203 97 -327 59z m159 -164 c23 -23 -40 -195 -89
-242 -162 -154 -357 27 -208 193 59 66 249 97 297 49z"/>
<path d="M4986 640 c-78 -32 -91 -88 -33 -139 47 -41 51 -54 38 -148 -34 -252
-35 -275 -11 -303 34 -41 127 -37 167 7 44 48 42 72 -11 108 -44 28 -44 32
-19 208 36 253 2 321 -131 267z"/>
<path d="M64 596 c-33 -33 -30 -106 7 -136 46 -39 129 5 129 69 0 72 -88 115
-136 67z"/>
<path d="M5844 596 c-49 -49 -16 -156 49 -156 32 0 87 56 87 90 0 67 -91 111
-136 66z"/>
<path d="M429 491 c-112 -112 -24 -288 131 -263 196 31 186 312 -11 312 -49 0
-86 -15 -120 -49z"/>
<path d="M5373 499 c-41 -33 -53 -59 -53 -120 0 -156 149 -213 262 -101 149
150 -43 352 -209 221z"/>
</g>
</svg>
